<svg width="838" height="782" viewBox="0 0 838 782" fill="none" xmlns="http://www.w3.org/2000/svg">
<ellipse cx="258.696" cy="389.889" rx="96" ry="150" transform="rotate(14.1214 258.696 389.889)" fill="#FAEBD7"/>
<ellipse cx="573.695" cy="389.889" rx="96" ry="150" transform="rotate(-14.12 573.695 389.889)" fill="#FAEBD7"/>
<circle cx="373" cy="574" r="15" fill="#FAEBD7"/>
<circle cx="459" cy="574" r="15" fill="#FAEBD7"/>
<path d="M665 635C665 719 665 781.504 422.562 781.504C180.125 781.504 172.003 716.505 172 635C171.991 390.505 278.323 693.503 415.565 693.503C552.808 693.503 665 389.5 665 635Z" fill="#FAEBD7"/>
<path d="M169.842 22.1678C147.267 34.4109 84.2392 269.606 122.416 340.002C160.593 410.397 179.336 230.745 201.911 218.502C224.486 206.259 318.02 197.858 279.843 127.462C241.666 57.0668 192.417 9.92484 169.842 22.1678Z" fill="#FAEBD7"/>
<path d="M667.566 22.1678C690.141 34.4109 753.168 269.606 714.991 340.002C676.814 410.397 658.071 230.745 635.496 218.502C612.921 206.259 519.387 197.858 557.564 127.462C595.741 57.0668 644.99 9.92484 667.566 22.1678Z" fill="#FAEBD7"/>
</svg>
